<svg xmlns="http://www.w3.org/2000/svg" viewBox="0 0 960 560" width="960" height="560" font-family="Segoe UI, Helvetica, Arial, sans-serif"><defs><marker id="a9a948a" viewBox="0 0 10 10" refX="9" refY="5" markerWidth="7" markerHeight="7" orient="auto-start-reverse"><path d="M0,0 L10,5 L0,10 z" fill="#9a948a"/></marker><marker id="ab86e00" viewBox="0 0 10 10" refX="9" refY="5" markerWidth="7" markerHeight="7" orient="auto-start-reverse"><path d="M0,0 L10,5 L0,10 z" fill="#b86e00"/></marker><marker id="a0f6e8c" viewBox="0 0 10 10" refX="9" refY="5" markerWidth="7" markerHeight="7" orient="auto-start-reverse"><path d="M0,0 L10,5 L0,10 z" fill="#0f6e8c"/></marker><marker id="a1f8a80" viewBox="0 0 10 10" refX="9" refY="5" markerWidth="7" markerHeight="7" orient="auto-start-reverse"><path d="M0,0 L10,5 L0,10 z" fill="#1f8a80"/></marker><style>.t{font-size:15px;font-weight:600;fill:#22201c}.s{font-size:12px;fill:#6a655c}.h{font-size:13px;font-weight:700;letter-spacing:.06em;fill:#6a655c}.l{font-size:12px;font-weight:600}</style></defs><rect width="960" height="560" rx="14" fill="#f6f5f2"/><rect x="24" y="22" width="912" height="128" rx="10" fill="#efede8" stroke="#dedad2"/><text x="40" y="46" class="h">HOME NETWORK (LAN)</text><rect x="48" y="62" width="250" height="66" rx="8" fill="#ffffff" stroke="#0f6e8c" stroke-width="1.5"/><rect x="48" y="62" width="5" height="66" rx="2" fill="#0f6e8c"/><text x="66" y="92.0" class="t">Access point</text><text x="66" y="110.0" class="s">SSH · NWA50AX PRO</text><rect x="354" y="62" width="250" height="66" rx="8" fill="#ffffff" stroke="#0f6e8c" stroke-width="1.5"/><rect x="354" y="62" width="5" height="66" rx="2" fill="#0f6e8c"/><text x="372" y="92.0" class="t">Access point</text><text x="372" y="110.0" class="s">SNMP or SSH · WAC / NWA</text><rect x="660" y="62" width="250" height="66" rx="8" fill="#ffffff" stroke="#1f8a80" stroke-width="1.5"/><rect x="660" y="62" width="5" height="66" rx="2" fill="#1f8a80"/><text x="678" y="92.0" class="t">OPNsense</text><text x="678" y="110.0" class="s">DHCP · DNS · gateways · NetFlow</text><rect x="24" y="196" width="912" height="340" rx="10" fill="#ffffff" stroke="#dedad2"/><text x="40" y="222" class="h">ZYXEL MONITOR  (DOCKER OR SYSTEMD)</text><rect x="354" y="244" width="250" height="60" rx="8" fill="#e1eff4" stroke="#0f6e8c" stroke-width="1.5"/><rect x="354" y="244" width="5" height="60" rx="2" fill="#0f6e8c"/><text x="372" y="271.0" class="t">Poller</text><text x="372" y="289.0" class="s">every 60 s</text><rect x="354" y="344" width="250" height="60" rx="8" fill="#ffffff" stroke="#22201c" stroke-width="1.5"/><rect x="354" y="344" width="5" height="60" rx="2" fill="#22201c"/><text x="372" y="371.0" class="t">SQLite</text><text x="372" y="389.0" class="s">status · clients · events · history</text><rect x="660" y="344" width="250" height="60" rx="8" fill="#ffffff" stroke="#6456a8" stroke-width="1.5"/><rect x="660" y="344" width="5" height="60" rx="2" fill="#6456a8"/><text x="678" y="371.0" class="t">FastAPI</text><text x="678" y="389.0" class="s">/api · login · roles</text><rect x="660" y="452" width="250" height="60" rx="8" fill="#eeebf8" stroke="#6456a8" stroke-width="1.5"/><rect x="660" y="452" width="5" height="60" rx="2" fill="#6456a8"/><text x="678" y="479.0" class="t">Dashboard</text><text x="678" y="497.0" class="s">Vue 3 · phone and PC</text><rect x="48" y="244" width="250" height="60" rx="8" fill="#fbf1e2" stroke="#b86e00" stroke-width="1.5"/><rect x="48" y="244" width="5" height="60" rx="2" fill="#b86e00"/><text x="66" y="271.0" class="t">Guard</text><text x="66" y="289.0" class="s">preview · trial · rollback</text><rect x="354" y="452" width="250" height="60" rx="8" fill="#ffffff" stroke="#1f8a80" stroke-width="1.5"/><rect x="354" y="452" width="5" height="60" rx="2" fill="#1f8a80"/><text x="372" y="479.0" class="t">Alerts</text><text x="372" y="497.0" class="s">events · weekly report</text><rect x="48" y="452" width="250" height="60" rx="8" fill="#e3f3f1" stroke="#1f8a80" stroke-width="1.5"/><rect x="48" y="452" width="5" height="60" rx="2" fill="#1f8a80"/><text x="66" y="487.0" class="t">Telegram</text><path d="M173,128 C173,190 400,190 420,242" fill="none" stroke="#0f6e8c" stroke-width="1.6" marker-end="url(#a0f6e8c)"/><path d="M479,128 L479,242" fill="none" stroke="#0f6e8c" stroke-width="1.6" marker-end="url(#a0f6e8c)"/><text x="488" y="178" class="l" fill="#0f6e8c">reads</text><path d="M785,128 C785,190 560,190 540,242" fill="none" stroke="#1f8a80" stroke-width="1.6" marker-end="url(#a1f8a80)"/><text x="800" y="178" class="l" fill="#1f8a80">read-only API</text><path d="M479,304 L479,342" fill="none" stroke="#9a948a" stroke-width="1.6" marker-end="url(#a9a948a)"/><path d="M604,374 L658,374" fill="none" stroke="#9a948a" stroke-width="1.6" marker-end="url(#a9a948a)"/><path d="M785,404 L785,450" fill="none" stroke="#9a948a" stroke-width="1.6" marker-end="url(#a9a948a)"/><path d="M479,404 L479,450" fill="none" stroke="#9a948a" stroke-width="1.6" marker-end="url(#a9a948a)"/><path d="M354,482 L300,482" fill="none" stroke="#1f8a80" stroke-width="1.6" marker-end="url(#a1f8a80)"/><path d="M173,244 L173,130" fill="none" stroke="#b86e00" stroke-width="1.6" marker-end="url(#ab86e00)" stroke-dasharray="6 5"/><text x="48" y="326" class="l" fill="#b86e00">↑ commands (only if management is on)</text><path d="M226,244 C260,170 330,170 380,130" fill="none" stroke="#b86e00" stroke-width="1.6" marker-end="url(#ab86e00)" stroke-dasharray="6 5"/></svg>